<svg width="25" height="23" viewBox="0 0 25 23" fill="none" xmlns="http://www.w3.org/2000/svg">
<path d="M23.6406 5.27206C22.635 2.47075 21.8452 1.6115 20.7949 0.551109C20.4813 0.234488 19.9816 0.190493 19.6142 0.442649C15.0198 3.59551 12.4355 4.48543 8.24283 4.51891C5.35982 4.5941 3.61191 4.57541 0.968604 4.41414C0.444885 4.38218 0 4.79673 0 5.32142V17.437C0 17.963 0.446503 18.3778 0.971458 18.3446C3.05422 18.2131 4.4002 18.1996 6.48547 18.2848V14.4354H4.6721C4.17154 14.4354 3.76576 14.0296 3.76576 13.5291V9.14917C3.76576 8.64861 4.17154 8.24283 4.6721 8.24283H10.2931C13.7095 7.94978 15.6849 7.4612 18.7349 5.52101C19.0647 5.31117 19.5084 5.4515 19.6424 5.81877C21.1936 10.0688 21.1461 12.7375 19.6335 16.9883C19.5031 17.3547 19.0638 17.5004 18.7328 17.2961C15.3442 15.2042 13.3185 14.6695 9.9165 14.4354V18.2848C13.5944 18.6616 15.8191 19.5694 19.582 22.2387C19.9628 22.5088 20.4905 22.4541 20.7862 22.0928C24.8972 17.0704 25.3676 11.5374 23.6406 5.27206Z" fill="#ED7D31"/>
</svg>
